<svg width="464" height="464" xmlns="http://www.w3.org/2000/svg" xmlns:svg="http://www.w3.org/2000/svg">
 <g class="layer">
  <title>Layer 1</title>
  <path d="m272,288l33.47266,0c-0.89844,-2.51172 -1.47266,-5.18359 -1.47266,-8l0,-24l-32,0l0,32zm0,0" id="svg_1"/>
  <path d="m360,129.0625l0,-1.0625l-184,0l0,256l16,0l0,-240l123.41406,0.05469c6,-6.20703 13.91407,-10.60547 22.92969,-11.89453l21.65625,-3.09766zm0,0" fill="#ef474b" id="svg_2"/>
  <path d="m304,171.75391c0,-4.06641 0.76172,-7.96875 1.92969,-11.70703l-33.92969,-0.01563l0,31.96875l32,0l0,-20.24609zm0,0" id="svg_3"/>
  <path d="m272,384l64.08984,0l-2.875,-32l-61.21484,0l0,32zm0,0" id="svg_4"/>
  <path d="m272,208l32,0l0,32l-32,0l0,-32zm0,0" id="svg_5"/>
  <path d="m208,160.00781l48,0l0,31.99219l-48,0l0,-31.99219zm0,0" id="svg_6"/>
  <path d="m208,256l48,0l0,32l-48,0l0,-32zm0,0" id="svg_7"/>
  <path d="m208,352l48,0l0,32l-48,0l0,-32zm0,0" id="svg_8"/>
  <path d="m208,304l48,0l0,32l-48,0l0,-32zm0,0" id="svg_9"/>
  <path d="m208,208l48,0l0,32l-48,0l0,-32zm0,0" id="svg_10"/>
  <path d="m392,112c22.05469,0 40,-17.94531 40,-40l0,-8l-80,0l0,8c0,22.05469 17.94531,40 40,40zm0,0" id="svg_11"/>
  <path d="m328,304l-56,0l0,32l59.78516,0l-2.88282,-32.08984c-0.30078,0.01172 -0.58984,0.08984 -0.90234,0.08984zm0,0" id="svg_12"/>
  <path d="m393.22266,48l5.33593,-32l-13.11718,0l5.33593,32l2.44532,0zm0,0" id="svg_13"/>
  <path d="m432,40c0,-10.92969 -7.38281,-20.07031 -17.39844,-22.96094l-5.16015,30.96094l22.55859,0l0,-8zm0,0" id="svg_14"/>
  <path d="m369.39844,17.03906c-10.01563,2.89063 -17.39844,12.03125 -17.39844,22.96094l0,8l22.55859,0l-5.16015,-30.96094zm0,0" id="svg_15"/>
  <path d="m422.09766,144.95313l-3.27344,-0.46485l-15.51172,15.51172l9.55859,9.55078l9.22657,-24.59765zm0,0" id="svg_16"/>
  <path d="m361.90234,144.95313l9.22657,24.59765l9.55859,-9.55078l-15.51172,-15.51172l-3.27344,0.46485zm0,0" id="svg_17"/>
  <path d="m408,132.6875l0,-7.04687c-5.07031,1.51953 -10.44141,2.35937 -16,2.35937s-10.92969,-0.83984 -16,-2.35937l0,7.04687l16,16l16,-16zm0,0" id="svg_18"/>
  <path d="m64,400l240,0l0,16l-240,0l0,-16zm0,0" fill="#ffffff" id="svg_19" transform="matrix(1 0 0 1 0 0)"/>
  <path d="m64,432l240,0l0,16l-240,0l0,-16zm0,0" fill="#ffffff" id="svg_20" transform="matrix(1 0 0 1 0 0)"/>
  <path d="m320,400l0,48l21.82422,0l-4.30469,-48l-17.51953,0zm0,0" id="svg_21"/>
  <path d="m48,240l112,0l0,80l-112,0l0,-80zm0,0" id="svg_22"/>
  <path d="m344.15234,297.63281l15.15235,166.36719l24.69531,0l0,-168l-38.23828,0c-0.52344,0.56641 -1.05078,1.11328 -1.60938,1.63281zm0,0" id="svg_23"/>
  <path d="m443.39844,148l-5.07813,-0.72656l-19.1914,51.16797l-27.12891,-27.12891l-27.12891,27.12891l-19.1914,-51.16797l-5.07032,0.72656c-11.7539,1.67188 -20.60937,11.87891 -20.60937,23.75391l0,108.24609c0,4.41406 3.59375,8 8,8s8,-3.58594 8,-8l0,-96l16,0l0,96l33.41406,0c-0.85547,-2.44922 -1.41406,-5.03906 -1.41406,-7.78516l0,-2.95703c0,-5.10547 1.6875,-10.16797 4.75391,-14.26562l6.39843,-8.52735l-3.83984,-3.83203c-4.64844,-4.65625 -7.3125,-11.08984 -7.3125,-17.66406c0,-13.76953 11.19922,-24.96875 24.96875,-24.96875c6.10156,0 11.80859,2.26563 16.35156,6.23828l6.67969,-8.90234l0,-13.33594l16,0l0,13.33594c0,3.4414 -1.13672,6.84765 -3.20703,9.60156l-43.24219,57.64844c-1,1.34375 -1.55078,3 -1.55078,4.67187l0,2.95703c0,4.28907 3.49609,7.78516 7.78516,7.78516c2.53515,0 4.91796,-1.23828 6.375,-3.32031l45.5039,-65c2.83203,-4.0625 4.33594,-8.82422 4.33594,-13.76953l0,-26.16797c0,-11.86328 -8.85547,-22.07031 -20.60156,-23.74219zm0,0" fill="#ffffff" id="svg_24" transform="matrix(1 0 0 1 0 0)"/>
  <path d="m160,336l-128,0l0,-112l128,0l0,-16l-144,0l0,195.05469l38.11328,-19.05469l105.88672,0l0,-48zm0,0" fill="#ef474f" id="svg_25" transform="matrix(1 0 0 1 0 0)"/>
  <path d="m450.02344,253.33594l-10.44922,14.92969l9.11328,9.10937c1.69531,1.69531 3.94531,2.625 6.34375,2.625c4.94531,0 8.96875,-4.02344 8.96875,-8.96875c0,-2.35937 -0.96094,-4.67187 -2.625,-6.34375l-11.35156,-11.35156zm0,0" id="svg_26"/>
  <path d="m437.375,288.6875l-7.10937,-7.11328l-2.99219,4.28125c-4.45703,6.34375 -11.73828,10.14453 -19.48828,10.14453l-7.78516,0l0,168l24.69531,0l15.33594,-168.72656l-0.01562,-4.41797c-0.90235,-0.6875 -1.82422,-1.35156 -2.64063,-2.16797zm0,0" id="svg_27"/>
  <path d="m208,48l16,0l0,32l-16,0l0,-32zm0,0" fill="#ffffff" id="svg_28" transform="matrix(1 0 0 1 0 0)"/>
  <path d="m48,443.05469l0,-38.10938l-38.11328,19.05469l38.11328,19.05469zm0,0" fill="#ffffff" id="svg_29" transform="matrix(1 0 0 1 0 0)"/>
  <path d="m240,48l16,0l0,32l-16,0l0,-32zm0,0" fill="#ffffff" id="svg_30"/>
  <path d="m176,48l16,0l0,32l-16,0l0,-32zm0,0" fill="#ffffff" id="svg_31" transform="matrix(1 0 0 1 0 0)"/>
  <path d="m404.84766,233.53516l10.87109,-14.4961l-0.41406,-0.41406c-1.6875,-1.69531 -3.9375,-2.625 -6.33594,-2.625c-4.94531,0 -8.96875,4.02344 -8.96875,8.96875c0,2.35938 0.96094,4.67188 2.625,6.34375l2.22266,2.22266zm0,0" id="svg_32"/>
  <path d="m144,48l16,0l0,32l-16,0l0,-32zm0,0" fill="#ffffff" id="svg_33" transform="matrix(1 0 0 1 0 0)"/>
  <path d="m0,176l160,0l0,16l-160,0l0,-16zm0,0" fill="#ffffff" id="svg_34" transform="matrix(1 0 0 1 0 0)"/>
  <path d="m160,112l128,0l0,-104c0,-4.41406 -3.59375,-8 -8,-8l-160,0c-4.40625,0 -8,3.58594 -8,8l0,152l48,0l0,-48zm-32,-80l144,0l0,64l-144,0l0,-64zm0,0" fill="#ef474b" id="svg_35" transform="matrix(1 0 0 1 0 0)"/>
 </g>
</svg>