<?xml version="1.0"?>
<svg xmlns="http://www.w3.org/2000/svg" xmlns:xlink="http://www.w3.org/1999/xlink" xmlns:svgjs="http://svgjs.com/svgjs" version="1.1" width="512" height="512" x="0" y="0" viewBox="0 0 64 64" style="enable-background:new 0 0 512 512" xml:space="preserve" class=""><g><path xmlns="http://www.w3.org/2000/svg" d="m1 21.008h49c.275 0 .5-.225.5-.5s-.225-.5-.5-.5h-49c-.275 0-.5.225-.5.5s.225.5.5.5z" fill="#ef474b" data-original="#656d78" style="" class=""/><path xmlns="http://www.w3.org/2000/svg" d="m53 21.008h10.483c.275 0 .5-.225.5-.5s-.225-.5-.5-.5h-10.483c-.275 0-.5.225-.5.5s.225.5.5.5z" fill="#ef474b" data-original="#656d78" style="" class=""/><path xmlns="http://www.w3.org/2000/svg" d="m27.681 30.008h22.322c.275 0 .5-.225.5-.5s-.225-.5-.5-.5h-22.322c-.275 0-.5.225-.5.5s.224.5.5.5z" fill="#ef474b" data-original="#656d78" style="" class=""/><path xmlns="http://www.w3.org/2000/svg" d="m52.993 30.008h10.507c.275 0 .5-.225.5-.5s-.225-.5-.5-.5h-10.507c-.275 0-.5.225-.5.5s.225.5.5.5z" fill="#ef474b" data-original="#656d78" style="" class=""/><path xmlns="http://www.w3.org/2000/svg" d="m1 30.008h15.3c.275 0 .5-.225.5-.5s-.225-.5-.5-.5h-15.3c-.275 0-.5.225-.5.5s.225.5.5.5z" fill="#ef474b" data-original="#656d78" style="" class=""/><path xmlns="http://www.w3.org/2000/svg" d="m52.993 12.008h10.49c.275 0 .5-.225.5-.5s-.225-.5-.5-.5h-10.49c-.275 0-.5.225-.5.5s.225.5.5.5z" fill="#ef474b" data-original="#656d78" style="" class=""/><path xmlns="http://www.w3.org/2000/svg" d="m1 12.008h49.003c.275 0 .5-.225.5-.5s-.225-.5-.5-.5h-49.003c-.275 0-.5.225-.5.5s.225.5.5.5z" fill="#ef474b" data-original="#656d78" style="" class=""/><g xmlns="http://www.w3.org/2000/svg" fill="#ccd1d9"><path d="m39.993 20.008c-.553 0-1-.447-1-1v-1.004c0-.553.447-1 1-1s1 .447 1 1v1.004c0 .553-.447 1-1 1z" fill="#ffffff" data-original="#ccd1d9" style="" class=""/><path d="m62.983 20.008c-.553 0-1-.447-1-1v-1.004c0-.553.447-1 1-1s1 .447 1 1v1.004c0 .553-.447 1-1 1z" fill="#ffffff" data-original="#ccd1d9" style="" class=""/><path d="m43.997 29.006c-.553 0-1-.447-1-1v-1c0-.553.447-1 1-1s1 .447 1 1v1c0 .553-.447 1-1 1z" fill="#ffffff" data-original="#ccd1d9" style="" class=""/><path d="m58.996 29.006c-.553 0-1-.447-1-1v-1c0-.553.447-1 1-1s1 .447 1 1v1c0 .553-.447 1-1 1z" fill="#ffffff" data-original="#ccd1d9" style="" class=""/><path d="m43.997 11.006c-.553 0-1-.447-1-1v-1.004c0-.553.447-1 1-1s1 .447 1 1v1.004c0 .553-.447 1-1 1z" fill="#ffffff" data-original="#ccd1d9" style="" class=""/><path d="m58.995 11.006c-.553 0-1-.447-1-1v-1.004c0-.553.447-1 1-1s1 .447 1 1v1.004c0 .553-.447 1-1 1z" fill="#ffffff" data-original="#ccd1d9" style="" class=""/><path d="m43.998 10.002c-.323 0-.64-.156-.833-.445-.307-.459-.183-1.08.277-1.387l5.996-4.002c.458-.305 1.078-.182 1.387.277.307.459.183 1.08-.277 1.387l-5.996 4.002c-.17.113-.364.168-.554.168z" fill="#ffffff" data-original="#ccd1d9" style="" class=""/><path d="m58.994 10.002c-.19 0-.384-.055-.554-.168l-5.996-4.002c-.46-.307-.584-.928-.277-1.387s.927-.582 1.387-.277l5.996 4.002c.46.307.584.928.277 1.387-.193.289-.51.445-.833.445z" fill="#ffffff" data-original="#ccd1d9" style="" class=""/><path d="m43.998 28.006c-.323 0-.64-.156-.833-.445-.307-.459-.183-1.08.277-1.387l5.996-4.002c.458-.307 1.078-.182 1.387.277.307.459.183 1.08-.277 1.387l-5.996 4.002c-.17.113-.364.168-.554.168z" fill="#ffffff" data-original="#ccd1d9" style="" class=""/><path d="m58.994 28.006c-.19 0-.384-.055-.554-.168l-5.996-4.002c-.46-.307-.584-.928-.277-1.387s.927-.584 1.387-.277l5.996 4.002c.46.307.584.928.277 1.387-.193.289-.51.445-.833.445z" fill="#ffffff" data-original="#ccd1d9" style="" class=""/><path d="m43.998 19.004c-.323 0-.64-.156-.833-.445-.307-.459-.183-1.08.277-1.387l5.996-4c.458-.307 1.078-.184 1.387.277.307.459.183 1.08-.277 1.387l-5.996 4c-.17.113-.364.168-.554.168z" fill="#ffffff" data-original="#ccd1d9" style="" class=""/><path d="m58.994 19.004c-.19 0-.384-.055-.554-.168l-5.996-4c-.46-.307-.584-.928-.277-1.387.307-.461.927-.584 1.387-.277l5.996 4c.46.307.584.928.277 1.387-.193.289-.51.445-.833.445z" fill="#ffffff" data-original="#ccd1d9" style="" class=""/></g><path xmlns="http://www.w3.org/2000/svg" d="m49.993 10.002h-5.996c-.553 0-1-.447-1-1s.447-1 1-1h5.996c.553 0 1 .447 1 1s-.447 1-1 1z" fill="#ef474b" data-original="#e6e9ed" style="" class=""/><path xmlns="http://www.w3.org/2000/svg" d="m58.995 10.002h-5.996c-.553 0-1-.447-1-1s.447-1 1-1h5.996c.553 0 1 .447 1 1s-.447 1-1 1z" fill="#ef474b" data-original="#e6e9ed" style="" class=""/><path xmlns="http://www.w3.org/2000/svg" d="m49.993 28.006h-5.996c-.553 0-1-.447-1-1s.447-1 1-1h5.996c.553 0 1 .447 1 1s-.447 1-1 1z" fill="#ef474b" data-original="#e6e9ed" style="" class=""/><path xmlns="http://www.w3.org/2000/svg" d="m58.995 28.006h-5.996c-.553 0-1-.447-1-1s.447-1 1-1h5.996c.553 0 1 .447 1 1s-.447 1-1 1z" fill="#ef474b" data-original="#e6e9ed" style="" class=""/><path xmlns="http://www.w3.org/2000/svg" d="m49.993 19.004h-10c-.553 0-1-.447-1-1s.447-1 1-1h10c.553 0 1 .447 1 1s-.447 1-1 1z" fill="#ef474b" data-original="#e6e9ed" style="" class=""/><path xmlns="http://www.w3.org/2000/svg" d="m62.983 19.004h-9.984c-.553 0-1-.447-1-1s.447-1 1-1h9.984c.553 0 1 .447 1 1s-.447 1-1 1z" fill="#ef474b" data-original="#e6e9ed" style="" class=""/><path xmlns="http://www.w3.org/2000/svg" d="m53 30.012v31h-3v-31-3.01-4-1.99-3.01-4-1.99-3.01-4-1.5c0-.83.67-1.51 1.5-1.51s1.5.68 1.5 1.51v1.5 4 3.01 1.99 4 3.01 1.99 4z" fill="#ffffff" data-original="#965353" style="" class=""/><path xmlns="http://www.w3.org/2000/svg" d="m41.99 38.012v4l-3-1.951-17-11.049-17 11.049-3 1.951v-4l12.31-8 7.69-5 7.7 5z" fill="#ffffff" data-original="#5d9cec" style="" class=""/><path xmlns="http://www.w3.org/2000/svg" d="m28.99 45.012h6v6h-6z" fill="#ffffff" data-original="#5d9cec" style="" class=""/><path xmlns="http://www.w3.org/2000/svg" d="m21.99 36.012c1.66 0 3 1.34 3 3 0 1.65-1.34 3-3 3-1.65 0-3-1.35-3-3 0-1.66 1.35-3 3-3z" fill="#ffffff" data-original="#5d9cec" style="" class=""/><path xmlns="http://www.w3.org/2000/svg" d="m18.99 49.012h6v12h-6z" fill="#ef474b" data-original="#656d78" style="" class=""/><path xmlns="http://www.w3.org/2000/svg" d="m8.99 45.012h6v6h-6z" fill="#ffffff" data-original="#5d9cec" style="" class=""/><path xmlns="http://www.w3.org/2000/svg" d="m38.99 40.061v20.951h-14v-12h-6v12h-14v-20.951l17-11.049zm-4 10.951v-6h-6v6zm-10-12c0-1.66-1.34-3-3-3-1.65 0-3 1.34-3 3 0 1.65 1.35 3 3 3 1.66 0 3-1.35 3-3zm-10 12v-6h-6v6z" fill="#ef474b" data-original="#e6e9ed" style="" class=""/><path xmlns="http://www.w3.org/2000/svg" d="m41.99 38.012v4l-3-1.951-17-11.049-17 11.049-3 1.951v-4l20-13 17.02 11.058z" fill="#ffffff" data-original="#5d9cec" style="" class=""/><path xmlns="http://www.w3.org/2000/svg" d="m21.99 36.012c1.66 0 3 1.35 3 3 0 1.66-1.34 3-3 3s-3-1.34-3-3c0-1.651 1.34-3 3-3z" fill="#ffffff" data-original="#5d9cec" style="" class=""/><path xmlns="http://www.w3.org/2000/svg" d="m8.99 45.012h6v6h-6z" fill="#ffffff" data-original="#5d9cec" style="" class=""/><path xmlns="http://www.w3.org/2000/svg" d="m28.99 45.012h6v6h-6z" fill="#ffffff" data-original="#5d9cec" style="" class=""/><path xmlns="http://www.w3.org/2000/svg" d="m38.99 58.012v3h-14v-12h-6v12h-14v-3-17.951l17-11.049 17 11.049zm-4-7v-6h-6v6zm-10-12c0-1.65-1.34-3-3-3s-3 1.35-3 3c0 1.66 1.34 3 3 3s3-1.34 3-3zm-10 12v-6h-6v6z" fill="#ef474b" data-original="#e6e9ed" style="" class=""/><path xmlns="http://www.w3.org/2000/svg" d="m42.99 39.012c0-.035-.017-.064-.02-.098-.008-.068-.02-.133-.04-.199-.021-.063-.044-.119-.074-.174s-.063-.105-.104-.154c-.044-.053-.092-.1-.146-.143-.027-.021-.043-.051-.072-.07l-20-13c-.332-.215-.758-.215-1.09 0l-20 13c-.029.02-.045.049-.072.07-.054.043-.102.09-.146.143-.04.049-.074.1-.104.154-.03.055-.054.111-.073.174-.021.066-.033.131-.041.199-.003.033-.02.063-.02.098v3c0 .029.014.053.017.082.006.068.021.133.04.199.02.064.041.125.073.184.014.025.015.055.031.08.02.029.049.045.071.072.043.053.089.102.143.145.049.041.1.074.154.105.056.029.111.053.172.072.066.021.133.033.203.041.033.004.062.02.096.02.028 0 .053-.014.081-.018.069-.004.134-.02.201-.039.064-.02.124-.041.183-.072.025-.016.055-.016.08-.033l19.457-12.647 19.455 12.647c.033.021.069.031.104.049.031.016.062.031.096.043.113.041.229.07.345.07h.001.002c.118-.002.233-.029.345-.07.023-.01.047-.016.069-.027.101-.045.193-.105.275-.186.016-.014.026-.031.041-.047.037-.041.076-.078.106-.125.017-.025.018-.055.031-.08.032-.059.054-.119.073-.184.02-.066.034-.131.04-.199.003-.029.017-.053.017-.082z" fill="#ffffff" data-original="#5d9cec" style="" class=""/><path xmlns="http://www.w3.org/2000/svg" d="m14.99 51.512h-6c-.276 0-.5-.225-.5-.5v-6c0-.277.224-.5.5-.5h6c.276 0 .5.223.5.5v6c0 .275-.223.5-.5.5zm-5.5-1h5v-5h-5z" fill="#f5f7fa" data-original="#f5f7fa" style="" class=""/><path xmlns="http://www.w3.org/2000/svg" d="m34.99 51.512h-6c-.276 0-.5-.225-.5-.5v-6c0-.277.224-.5.5-.5h6c.276 0 .5.223.5.5v6c0 .275-.223.5-.5.5zm-5.5-1h5v-5h-5z" fill="#f5f7fa" data-original="#f5f7fa" style="" class=""/><path xmlns="http://www.w3.org/2000/svg" d="m21.99 42.512c-1.93 0-3.5-1.57-3.5-3.5s1.57-3.5 3.5-3.5 3.5 1.57 3.5 3.5-1.57 3.5-3.5 3.5zm0-6c-1.379 0-2.5 1.121-2.5 2.5s1.121 2.5 2.5 2.5 2.5-1.121 2.5-2.5-1.121-2.5-2.5-2.5z" fill="#f5f7fa" data-original="#f5f7fa" style="" class=""/><path xmlns="http://www.w3.org/2000/svg" d="m24.49 48.01c.55 0 1 .451 1 1v11.002c0 .549-.45 1-1 1h-5c-.55 0-1-.451-1-1v-11.002c0-.549.45-1 1-1z" fill="#ffffff" data-original="#545c66" style="" class=""/><path xmlns="http://www.w3.org/2000/svg" d="m63 62.008h-62c-.553 0-1-.447-1-1s.447-1 1-1h62c.553 0 1 .447 1 1s-.447 1-1 1z" fill="#ef474b" data-original="#656d78" style="" class=""/></g></svg>
