<svg width="464" height="464" xmlns="http://www.w3.org/2000/svg" xmlns:svg="http://www.w3.org/2000/svg">
 <g class="layer">
  <title>Layer 1</title>
  <path d="m424,280l-32,0c0,17.67188 14.32813,32 32,32l32,0c0,-17.67187 -14.32812,-32 -32,-32zm0,0" id="svg_1"/>
  <path d="m176,288l16,0l0,32l-16,0l0,-32zm0,0" fill="black" id="svg_2" transform="matrix(1 0 0 1 0 0)"/>
  <path d="m16,384l16,0l0,32l-16,0l0,-32zm0,0" id="svg_3"/>
  <path d="m304,240c26.47266,0 48,-21.52734 48,-48l0,-12.18359l-31.18359,-25.3125l-19.16016,19.16015l-11.3125,-11.3125l19.35938,-19.35937l-12.35938,-18.54297l13.3125,-8.875l15.3125,22.96875l26.03125,20.80859l0,-99.07031l-20.44141,-13.625l8.875,-13.3125l27.56641,18.375l0,21.33594l11.55859,-7.71094l8.875,13.3125l-20.43359,13.625l0,35.07031l27,-21.59765l10,12.49218l-15.23828,12.19532l15.89453,15.89453l-11.3125,11.3125l-17.16016,-17.16016l-9.18359,7.35938l0,44.15234c0,0.34375 0.03906,0.67188 0.04688,1.01563l39.36718,-26.2461l36.16016,18.07813l-7.16016,14.3125l-27.83984,-13.92188l-37.0625,24.70703c7.12109,17.59766 24.35937,30.05469 44.48828,30.05469c26.47266,0 48,-21.52734 48,-48c0,-17.74219 -9.74219,-33.97656 -25.42578,-42.35156l-7.0625,-3.76953l3.77734,-7.0625c3.125,-5.83985 4.71094,-12.17578 4.71094,-18.81641c0,-18.76172 -13.30469,-35.20703 -31.64063,-39.11328l-10.13671,-2.16016l4.64843,-9.2539c3.40235,-6.77735 5.12891,-13.99219 5.12891,-21.47266c0,-26.47266 -21.52734,-48 -48,-48s-48,21.52734 -48,48c0,7.48047 1.72656,14.69531 5.12891,21.48047l4.64843,9.25391l-10.13672,2.16015c-18.33593,3.89844 -31.64062,20.34375 -31.64062,39.10547c0,6.64063 1.58594,12.97656 4.71094,18.82422l3.77734,7.0625l-7.0625,3.76953c-15.68359,8.36719 -25.42578,24.60156 -25.42578,42.34375c0,26.47266 21.52734,48 48,48zm0,0" fill="#ef474b" id="svg_4"/>
  <path d="m256,288l16,0l0,32l-16,0l0,-32zm0,0" id="svg_5"/>
  <path d="m240,352.71875l0,-93.40625l-16,-16l-16,16l0,99.18359c7.12891,-4.1289 15.33594,-6.49609 24,-6.49609c2.72656,0 5.39063,0.28125 8,0.71875zm0,0" fill="#ef474b" id="svg_6" transform="matrix(1 0 0 1 0 0)"/>
  <path d="m96,288l16,0l0,32l-16,0l0,-32zm0,0" id="svg_7"/>
  <path d="m160,396.32031l0,-137.00781l-16,-16l-16,16l0,188.6875l-48,0l0,-188.6875l-16,-16l-16,16l0,188.6875l-48,0l0,16l156.32031,0c-7.63281,-8.50391 -12.32031,-19.69531 -12.32031,-32c0,-14.16797 6.20703,-26.87891 16,-35.67969zm0,0" fill="black" id="svg_8" transform="matrix(1 0 0 1 0 0)"/>
  <path d="m16,288l16,0l0,32l-16,0l0,-32zm0,0" id="svg_9"/>
  <path d="m96,384l16,0l0,32l-16,0l0,-32zm0,0" fill="#ef474b" id="svg_10" transform="matrix(1 0 0 1 0 0)"/>
  <path d="m191.19141,120l-23.19141,0c-19.32031,0 -35.48047,13.76953 -39.19141,32l23.19141,0c19.32031,0 35.48047,-13.76953 39.19141,-32zm0,0" id="svg_11"/>
  <path d="m191.19141,40l-23.19141,0c-3.15234,0 -6.24609,0.46484 -9.28125,1.19922c0.76172,3 1.28125,6.07422 1.28125,9.19141c0,8.00781 -2.55859,15.40234 -6.83984,21.5039c18.79297,-0.54297 34.39062,-14.03125 38.03125,-31.89453zm0,0" id="svg_12"/>
  <path d="m86.83984,71.89453c-4.28125,-6.10156 -6.83984,-13.49609 -6.83984,-21.5039c0,-3.11719 0.51953,-6.19141 1.28906,-9.19141c-3.04297,-0.73438 -6.13672,-1.19922 -9.28906,-1.19922l-23.19141,0c3.64063,17.86328 19.23829,31.35156 38.03125,31.89453zm0,0" id="svg_13"/>
  <path d="m88,192l23.19141,0c-3.71875,-18.23047 -19.8711,-32 -39.19141,-32l-23.19141,0c3.71094,18.23047 19.8711,32 39.19141,32zm0,0" id="svg_14"/>
  <path d="m112,71.16797l0,181.51953l16,-16l0,-165.51953c9.18359,-2.48828 16,-10.81641 16,-20.77734c0,-4.88672 -1.67969,-9.6875 -4.73437,-13.50391l-19.26563,-24.07813l-19.25781,24.08594c-3.0625,3.8086 -4.74219,8.60938 -4.74219,13.4961c0,9.96093 6.81641,18.28906 16,20.77734zm0,0" fill="#ef474b" id="svg_15" transform="matrix(1 0 0 1 0 0)"/>
  <path d="m352,320c5.53516,0 10.92969,0.96875 16,2.76953l0,-114.76953l-16,0l0,112zm0,0" fill="black" id="svg_16" transform="matrix(1 0 0 1 0 0)"/>
  <path d="m435.375,400.34375c2.87109,-4.80078 4.625,-10.34375 4.625,-16.34375c0,-17.67187 -14.32812,-32 -32,-32c-9.86328,0 -18.57422,4.55859 -24.44922,11.57422c-2.16797,-15.55859 -15.39062,-27.57422 -31.55078,-27.57422s-29.38281,12.01563 -31.55078,27.57422c-5.875,-7.01563 -14.58594,-11.57422 -24.44922,-11.57422c-14.9375,0 -27.375,10.27344 -30.90234,24.11328c-0.3711,-0.01562 -0.72266,-0.11328 -1.09766,-0.11328c-3.23828,0 -6.30469,0.625 -9.24609,1.51953c-5.8086,-5.87109 -13.85157,-9.51953 -22.75391,-9.51953c-17.67187,0 -32,14.32813 -32,32c0,0.39844 0.10547,0.76953 0.12109,1.16797c-2.60937,-0.6875 -5.29687,-1.16797 -8.12109,-1.16797c-17.67187,0 -32,14.32813 -32,32s14.32813,32 32,32l240,0c17.67188,0 32,-14.32812 32,-32c0,-16.51953 -12.55859,-29.95312 -28.625,-31.65625zm0,0" id="svg_17"/>
 </g>
</svg>