<svg width="511" height="511.99925" xmlns="http://www.w3.org/2000/svg" xmlns:svg="http://www.w3.org/2000/svg">
 <g class="layer">
  <title>Layer 1</title>
  <path d="m437.16016,74.65234c-99.97266,-99.60156 -261.74219,-99.58593 -361.66797,0.33985c-71.00781,71.01172 -92.63282,174.91406 -60.40625,266.29687l0.3789,1.07032c22.34766,62.48828 102.50391,80.44921 149.63282,33.32031l14.17968,-14.1836c38.10157,25.05079 90.17969,21.0625 123.94141,-12.69921l55.62109,-55.6211c3.75,-3.74609 5.85938,-8.83594 5.85938,-14.14062c0,-5.30078 -2.10938,-10.39063 -5.85938,-14.14063l-18.4414,-18.4414l54.97656,-54.97266c7.8125,-7.8125 7.8125,-20.47266 0,-28.28125c-7.80859,-7.8125 -20.47266,-7.8125 -28.28125,0l-54.97656,54.97656l-17.79688,-17.79687l55.76953,-55.76953c7.8086,-7.8125 7.8086,-20.47266 0,-28.28125c-7.8125,-7.8086 -20.47265,-7.8125 -28.28125,0l-55.76953,55.76953l-18.4414,-18.44141c-7.8086,-7.8125 -20.47266,-7.8125 -28.28125,0l-55.6211,55.61719c-33.62109,33.625 -37.85156,85.67578 -12.69531,123.9414l-14.1875,14.1836c-25.6875,25.6875 -70.88672,17.28125 -83.6875,-18.51563l-0.3125,-0.875c-27.08984,-76.82031 -9.21094,-164.55859 50.96094,-224.73047c84.27734,-84.27734 220.6875,-84.44921 305.15625,-0.28906c84.34375,84.03125 84.53515,221.36719 0.39843,305.6211c-61.73828,61.82812 -149.92578,77.49218 -224.83984,51.07031c-10.41406,-3.67188 -21.83984,1.79297 -25.51172,12.21094c-3.67578,10.41406 1.79297,21.83593 12.20703,25.50781c89.02735,31.39844 193.45313,12.57031 266.44922,-60.52735c99.76172,-99.90234 99.55078,-262.55859 -0.47265,-362.21875zm-245.1836,162.90625l41.48047,-41.48046l82.96094,82.96093l-41.48047,41.47657c-22.87109,22.875 -60.08594,22.875 -82.96094,0c-22.87109,-22.8711 -22.87109,-60.08594 0,-82.95704zm0,0" fill="#ef474b" id="svg_1"/>
 </g>
</svg>