<svg width="464" height="464" xmlns="http://www.w3.org/2000/svg" xmlns:svg="http://www.w3.org/2000/svg">
 <g class="layer">
  <title>Layer 1</title>
  <path d="m0,32l32,0l0,48l-32,0l0,-48zm0,0" id="svg_1"/>
  <path d="m126.50391,96l-20.46485,98.19922l6.90625,13.80078l-16.84765,33.69531l0.05468,0.00782l-22.98437,110.29687l-25.16797,0l0,-104l-16,0l0,104l-32,0l0,16l69.83203,0l-20,96l23.66406,0l76.67188,-368l-23.66406,0zm0,0" id="svg_2"/>
  <path d="m272,80l48,0l0,-80l-64,0l0,32l16,0l0,48zm0,0" fill="#ef474b" id="svg_3"/>
  <path d="m224,368l16,0l0,64l-16,0l0,-64zm0,0" id="svg_4"/>
  <path d="m368,29.76953l-32,-10.67187l0,60.90234l32,0l0,-50.23047zm0,0" id="svg_5"/>
  <path d="m48,0l48,0l0,80l-48,0l0,-80zm0,0" fill="#7a1e1e" fill-opacity="0" id="svg_6"/>
  <path d="m208,48l48,0l0,32l-48,0l0,-32zm0,0" id="svg_7"/>
  <path d="m192,28.94531l-24,-12l-24,12l0,51.05469l48,0l0,-51.05469zm0,0" fill="#ef474b" id="svg_8" transform="matrix(1 0 0 1 0 0)"/>
  <path d="m64,232l19.05469,0l12,-24l-12,-24l-83.05469,0l0,48l64,0zm0,0" fill="#ef474b" id="svg_9" transform="matrix(1 0 0 1 0 0)"/>
  <path d="m432,248l-16,0l0,104l-25.16797,0l-22.98437,-110.29687l0.05468,-0.00782l-16.84765,-33.69531l6.90625,-13.80078l-20.46485,-98.19922l-23.66406,0l76.67188,368l23.66406,0l-20,-96l69.83203,0l0,-16l-32,0l0,-104zm0,0" id="svg_10"/>
  <path d="m368.94531,208l12,24l83.05469,0l0,-48l-83.05469,0l-12,24zm0,0" fill="#ef474b" id="svg_11"/>
  <path d="m416,0l48,0l0,80l-48,0l0,-80zm0,0" fill="#000000" fill-opacity="0" id="svg_12"/>
  <path d="m166.50391,96l-76.66407,368l284.32813,0l-76.66406,-368l-131,0zm89.49609,352l-48,0l0,-96l48,0l0,96zm0,-112l-48,0l0,-96l48,0l0,96zm0,-112l-48,0l0,-96l48,0l0,96zm0,0" id="svg_13"/>
  <path d="m224,144l16,0l0,64l-16,0l0,-64zm0,0" id="svg_14"/>
  <path d="m224,256l16,0l0,64l-16,0l0,-64zm0,0" id="svg_15"/>
 </g>
</svg>