<?xml version="1.0"?>
<svg xmlns="http://www.w3.org/2000/svg" xmlns:xlink="http://www.w3.org/1999/xlink" xmlns:svgjs="http://svgjs.com/svgjs" version="1.1" width="512" height="512" x="0" y="0" viewBox="0 0 64 64" style="enable-background:new 0 0 512 512" xml:space="preserve" class=""><g><g xmlns="http://www.w3.org/2000/svg"><path d="m25 6.953c2.227-.621 4.575-.953 7-.953 6.925 0 13.218 2.708 17.877 7.123l-1.877 1.877 8 2-2-8-1.297 1.297c-5.385-5.138-12.673-8.297-20.703-8.297-2.77 0-5.453.376-8 1.078v3.922z" fill="#ef474b" data-original="#000000" style="" class=""/><path d="m3.078 40h3.922l-.047-1c-.621-2.227-.953-4.575-.953-7 0-6.925 2.708-13.218 7.123-17.877l1.877 1.877 2-8-8 2 1.297 1.297c-5.138 5.385-8.297 12.673-8.297 20.703 0 2.77.376 5.453 1.078 8z" fill="#ef474b" data-original="#000000" style="" class=""/><path d="m58 29c0 6.925-2.708 13.218-7.123 17.877l-1.877-1.877-2 8 8-2-1.297-1.297c5.138-5.385 8.297-12.673 8.297-20.703 0-2.77-.376-5.453-1.078-8h-3.922l.047 1c.621 2.227.953 4.575.953 7z" fill="#ef474b" data-original="#000000" style="" class=""/><path d="m44 55v-13h3c3.314 0 6-2.686 6-6h-4c-2.088 0-3.925 1.068-5 2.686v-6.686h3c3.314 0 6-2.686 6-6h-4c-2.088 0-3.925 1.068-5 2.686v-.686c0-3.314-2.686-6-6-6h-4c0 3.314 2.686 6 6 6h2v6.686c-1.075-1.618-2.912-2.686-5-2.686h-4c0 3.314 2.686 6 6 6h3v17h-10v-34h-18v14h14v20h-2v-18h-14v18h-11v2 6h62v-6-2zm-26-22h-2v-2h2zm0-4h-2v-2h2zm0-4h-2v-2h2zm4 8h-2v-2h2zm0-4h-2v-2h2zm0-4h-2v-2h2zm4 8h-2v-2h2zm0-4h-2v-2h2zm0-4h-2v-2h2zm2-2h2v2h-2zm0 4h2v2h-2zm0 4h2v2h-2zm-6 8h2v2h-2zm0 4h2v2h-2zm0 4h2v2h-2zm-4-8h2v2h-2zm0 4h2v2h-2zm0 4h2v2h-2zm-4-8h2v2h-2zm0 4h2v2h-2zm0 4h2v2h-2z" fill="#ef474b" data-original="#000000" style="" class=""/></g></g></svg>
