<?xml version="1.0" encoding="UTF-8"?>
<svg xmlns="http://www.w3.org/2000/svg" viewBox="0 0 512 512" width="512" height="512"><g id="Outline"><path d="M136,416h16v16H136Zm0-80h16V320H136Zm16-48H136v16h16Zm0-32H136v16h16Zm16,160v16h16V416Zm32,0v16h16V416ZM264.4,304.614a8,8,0,0,0-14.012-1.443l-33.33,49.047-9.9-19.8a8,8,0,0,0-14.1-.391l-32,56,13.892,7.938,24.584-43.022,9.315,18.631a8,8,0,0,0,13.772.918l32.654-48.052,9.334,22.609a8,8,0,0,0,13.949,1.535L320,289.379V296h16V264a8,8,0,0,0-9.94-7.761l-32,8,3.88,15.522,11.227-2.807-35.346,50.493ZM208,256H168v16h40Zm-40,48h16V288H168Zm176,48v25.823a23.979,23.979,0,0,1,24,4.755,23.957,23.957,0,0,1,31.991-.008,23.781,23.781,0,0,1,17.159-6.091h0A24.2,24.2,0,0,1,440,400.9v63.549a32.036,32.036,0,0,1-32,32H296a8,8,0,0,1-5.207-1.926L255.18,464H112a7.973,7.973,0,0,1-2.82-.521A49.057,49.057,0,0,1,63.029,496H24a8,8,0,0,1-8-8V389.666a94.258,94.258,0,0,1,48-82.449V240a32.036,32.036,0,0,1,32-32H208v16H120V344.025A24.9,24.9,0,0,1,137.324,352H152v16h-8.025c.013.323.025.645.025.971v1.076A25.069,25.069,0,0,1,139.733,384H152v16H136V388.806l-16,20V448H237.236a24.432,24.432,0,0,1-4.642-20.479,24.858,24.858,0,0,1,24.28-19.069h1.359a24.533,24.533,0,0,1,15.266,5.354l22.5,18V351.548a24.11,24.11,0,0,1,7.435-17.366,23.782,23.782,0,0,1,17.715-6.607A24.2,24.2,0,0,1,344,352ZM80,372.687l21.373-21.374A25.367,25.367,0,0,1,104,349.029V224H96a16.019,16.019,0,0,0-16,16Zm46.034,2.963a9,9,0,0,0,1.966-5.6v-1.076a8.97,8.97,0,0,0-15.314-6.343L77.657,397.657A8,8,0,0,1,64,392V326.225a78.337,78.337,0,0,0-32,63.441V480H63.029A32.971,32.971,0,0,0,96,447.029V421.953a25.06,25.06,0,0,1,5.472-15.6ZM344,400.452a8,8,0,0,1-16,0V352a8.327,8.327,0,0,0-7.6-8.442,8,8,0,0,0-8.4,7.99v96.9a8,8,0,0,1-13,6.247l-35.5-28.4a8.469,8.469,0,0,0-5.272-1.849h-1.359a8.758,8.758,0,0,0-8.665,6.56,8.454,8.454,0,0,0,2.738,8.286l48.012,41.154H408a16.019,16.019,0,0,0,16-16V400.9a8.328,8.328,0,0,0-7.6-8.442,8.031,8.031,0,0,0-5.917,2.2A7.935,7.935,0,0,0,408,400.452a8,8,0,0,1-16,0,8,8,0,0,0-16,0,8,8,0,0,1-16,0,8,8,0,0,0-16,0ZM496,57.928V198.072A41.976,41.976,0,0,1,454.072,240H427.313L416,251.313V360H400V267.314l-24,24V360H360V240H265.928A41.976,41.976,0,0,1,224,198.072V57.928A41.976,41.976,0,0,1,265.928,16H454.072A41.976,41.976,0,0,1,496,57.928Zm-16,0A25.957,25.957,0,0,0,454.072,32H265.928A25.957,25.957,0,0,0,240,57.928V198.072A25.957,25.957,0,0,0,265.928,224H368a8,8,0,0,1,8,8v36.687l42.343-42.344A8,8,0,0,1,424,224h30.072A25.957,25.957,0,0,0,480,198.072ZM456,136v8a8,8,0,0,1-8,8H368v40h88v16H264V192h88V176h-8a32.056,32.056,0,0,1-30.987-24H272a8,8,0,0,1-8-8v-8a32.036,32.036,0,0,1,32-32,32.036,32.036,0,0,1,32-32,32,32,0,0,1,64,0,32.036,32.036,0,0,1,32,32A32.036,32.036,0,0,1,456,136ZM352,152H330.165A16,16,0,0,0,344,160h8Zm88-16a16.019,16.019,0,0,0-16-16h-8a8,8,0,0,1-8-8v-8a16.019,16.019,0,0,0-16-16h-8a8,8,0,0,1-8-8V72a16,16,0,0,0-32,0v8a8,8,0,0,1-8,8h-8a16.019,16.019,0,0,0-16,16v8a8,8,0,0,1-8,8h-8a16.019,16.019,0,0,0-16,16h72V104h16v32a16.019,16.019,0,0,0,16-16h16a31.8,31.8,0,0,1-4.305,16ZM296,48H264V64h32ZM280,80H256V96h24ZM440,48H408V64h32Zm0,48h24V80H440Z"/></g></svg>
