<svg width="511.998" height="511.998" xmlns="http://www.w3.org/2000/svg" xmlns:svg="http://www.w3.org/2000/svg">
 <g class="layer">
  <title>Layer 1</title>
  <g id="svg_1">
   <g id="svg_2">
    <path d="m465.135,165.947l-139.504,-39.857l0,-69.652l88.512,0l0,16.036l-13.194,0c-4.149,0 -7.512,3.362 -7.512,7.512l0,31.062c0,4.15 3.363,7.512 7.512,7.512l41.415,0c4.149,0 7.512,-3.362 7.512,-7.512l0,-31.061c0,-4.15 -3.363,-7.512 -7.512,-7.512l-13.197,0l0,-16.037l33.905,0c3.746,0 6.92,-2.76 7.44,-6.47c0.52,-3.71 -1.774,-7.235 -5.376,-8.265l-144.777,-41.362c-0.008,-0.003 -0.017,-0.005 -0.025,-0.007l-0.152,-0.043c-0.059,-0.017 -0.117,-0.026 -0.176,-0.041c-0.161,-0.042 -0.323,-0.082 -0.488,-0.113c-0.12,-0.023 -0.239,-0.038 -0.359,-0.055c-0.119,-0.017 -0.237,-0.035 -0.358,-0.046c-0.166,-0.015 -0.332,-0.021 -0.498,-0.025c-0.062,-0.003 -0.122,-0.011 -0.184,-0.011l-0.161,0c-0.007,0 -0.015,0 -0.022,0l-123.872,0c-0.013,0 -0.027,0 -0.04,0l-0.147,0c-0.057,0 -0.113,0.007 -0.17,0.009c-0.172,0.004 -0.344,0.01 -0.516,0.026c-0.115,0.01 -0.228,0.028 -0.343,0.044c-0.124,0.018 -0.248,0.033 -0.374,0.057c-0.162,0.031 -0.321,0.07 -0.478,0.111c-0.061,0.016 -0.122,0.025 -0.183,0.042l-0.156,0.045c-0.006,0.002 -0.012,0.003 -0.018,0.005l-144.778,41.364c-3.602,1.03 -5.895,4.555 -5.375,8.265c0.52,3.71 3.694,6.47 7.44,6.47l33.903,0l0,16.036l-13.197,0c-4.149,0 -7.512,3.362 -7.512,7.512l0,31.062c0,4.15 3.363,7.512 7.512,7.512l41.415,0c4.149,0 7.512,-3.362 7.512,-7.512l0,-31.061c0,-4.15 -3.363,-7.512 -7.512,-7.512l-13.196,0l0,-16.037l88.514,0l0,69.651l-139.504,39.858c-3.602,1.03 -5.895,4.555 -5.375,8.265c0.52,3.71 3.694,6.47 7.44,6.47l33.903,0l0,16.036l-13.197,0c-4.149,0 -7.512,3.362 -7.512,7.512l0,31.062c0,4.15 3.363,7.512 7.512,7.512l41.415,0c4.149,0 7.512,-3.362 7.512,-7.512l0,-31.062c0,-4.15 -3.363,-7.512 -7.512,-7.512l-13.196,0l0,-16.036l88.514,0l0,74.265l-30.723,107.526c-0.001,0.004 -0.002,0.009 -0.004,0.013l-0.06,0.209c-0.001,0.003 -0.002,0.007 -0.003,0.01l-0.014,0.049c-0.002,0.009 -0.005,0.018 -0.008,0.026l-29.467,103.13l-15.041,0c-4.149,0 -7.512,3.362 -7.512,7.512l0,23.551l-15.35,0c-4.149,0 -7.512,3.362 -7.512,7.512s3.363,7.512 7.512,7.512l22.864,0l289.904,0l22.862,0c4.149,0 7.512,-3.362 7.512,-7.512s-3.363,-7.512 -7.512,-7.512l-15.35,0l0,-23.551c0,-4.15 -3.363,-7.512 -7.512,-7.512l-15.042,0l-29.465,-103.123c-0.004,-0.015 -0.009,-0.031 -0.013,-0.046l-0.068,-0.239c-0.004,-0.012 -0.007,-0.024 -0.01,-0.036l-30.721,-107.52l0,-74.265l88.512,0l0,16.036l-13.194,0c-4.149,0 -7.512,3.362 -7.512,7.512l0,31.062c0,4.15 3.363,7.512 7.512,7.512l41.415,0c4.149,0 7.512,-3.362 7.512,-7.512l0,-31.061c0,-4.15 -3.363,-7.512 -7.512,-7.512l-13.197,0l0,-16.036l33.905,0c3.746,0 6.92,-2.76 7.44,-6.47c0.517,-3.71 -1.777,-7.235 -5.378,-8.265zm-30.283,-78.448l0,16.038l-26.391,0l0,-16.038l26.391,0zm-109.221,-70.027l83.804,23.943l-83.804,0l0,-23.943zm-222.096,70.027l0,16.038l-26.391,0l0,-16.038l26.391,0zm0,124.242l0,16.038l-26.391,0l0,-16.038l26.391,0zm97.854,-196.717l109.218,0l0,26.391l-109.218,0l0,-26.391zm109.218,41.414l0,61.281l-91.922,-61.281l91.922,0zm-109.218,6.525l91.92,61.28l-91.92,0l0,-61.28zm0,76.304l109.218,0l0,26.392l-109.218,0l0,-26.392zm-14.742,217.932l69.352,-48.546l69.352,48.546l-138.704,0zm130.714,15.024l-61.363,30.682l-61.362,-30.682l122.725,0zm-99.653,-108.712l76.58,0l-38.29,26.802l-38.29,-26.802zm92.899,-82.829l0,61.28l-91.921,-61.28l91.921,0zm-109.218,6.524l91.923,61.282l-91.923,0l0,-61.282zm-98.829,-145.792l83.805,-23.943l0,23.943l-83.805,0zm0,124.244l83.805,-23.945l0,23.945l-83.805,0zm95.644,102.54l44.695,31.286l-67.042,46.928l22.347,-78.214zm-30.652,107.279l71.649,35.825l-95.533,47.767l23.884,-83.592zm212.685,105.462l0,0l0.002,0c0.009,0 0.019,-0.002 0.028,-0.002l13.173,0l0,16.039l-0.001,0l-274.879,0l0,-16.039l13.172,0c0.01,0 0.019,0.002 0.028,0.002c0.011,0 0.023,-0.002 0.034,-0.002l0.108,0c0.013,0 0.027,0 0.04,0l70.751,0c4.149,0 7.512,-3.362 7.512,-7.512c0,-4.15 -3.363,-7.512 -7.512,-7.512l-39.119,0l92.424,-46.212l92.424,46.212l-112.238,0c-4.149,0 -7.512,3.362 -7.512,7.512c0,4.15 3.363,7.512 7.512,7.512l144.019,0c0.011,0 0.023,0.002 0.034,0.002zm-11.909,-21.87l-95.533,-47.767l71.649,-35.825l23.884,83.592zm-32.188,-112.656l-67.043,-46.929l44.695,-31.286l22.348,78.215zm-10.509,-180.755l0,-23.944l83.805,23.944l-83.805,0zm109.221,46.083l0,16.038l-26.391,0l0,-16.038l26.391,0z" fill="#ef474b" id="svg_3"/>
   </g>
  </g>
  <g id="svg_4"/>
  <g id="svg_5"/>
  <g id="svg_6"/>
  <g id="svg_7"/>
  <g id="svg_8"/>
  <g id="svg_9"/>
  <g id="svg_10"/>
  <g id="svg_11"/>
  <g id="svg_12"/>
  <g id="svg_13"/>
  <g id="svg_14"/>
  <g id="svg_15"/>
  <g id="svg_16"/>
  <g id="svg_17"/>
  <g id="svg_18"/>
 </g>
</svg>