<svg width="64" height="64" xmlns="http://www.w3.org/2000/svg" xmlns:svg="http://www.w3.org/2000/svg">
 <g class="layer">
  <title>Layer 1</title>
  <g id="svg_1">
   <path d="m62.96775,23.25806l-9.29032,0l0,-0.96774c0,-0.5342 -0.46142,-0.96774 -1.03226,-0.96774l-7.2258,0l0,-1.93548l10.32258,0c1.70735,0 3.09677,-1.30258 3.09677,-2.90323l0,-2.22097c2.98116,-0.83516 5.16129,-3.42677 5.16129,-6.48871c0,-3.73549 -3.24232,-6.7742 -7.2258,-6.7742s-7.2258,3.03871 -7.2258,6.7742c0,2.69516 1.69187,5.02161 4.12903,6.11129c0,0.22097 0,0.44194 0,0.6629l-10.32258,0c-1.70735,0 -3.09677,1.30258 -3.09677,2.90323l0,3.87097l-4.12903,0l0,-0.96774l2.06452,0l0,-1.93548l-2.06452,0l0,-1.93548l2.06452,0l0,-1.93548l-2.06452,0l0,-1.93548l2.06452,0l0,-1.93548l-2.06452,0l0,-2.90323c0,-0.5342 -0.46142,-0.96774 -1.03226,-0.96774l0,-0.96774c0,-1.26 -0.86607,-2.32452 -2.06452,-2.72516l0,-2.11355l-2.06452,0l0,2.11355c-1.19845,0.40064 -2.06452,1.46516 -2.06452,2.72516l0,0.96774c-0.57084,0 -1.03226,0.43355 -1.03226,0.96774l0,2.90323l-2.06452,0l0,1.93548l2.06452,0l0,1.93548l-2.06452,0l0,1.93548l2.06452,0l0,1.93548l-2.06452,0l0,1.93548l2.06452,0l0,0.96774l-6.19355,0l0,-0.96774l2.06452,0l0,-1.93548l-2.06452,0l0,-1.93548l2.06452,0l0,-1.93548l-2.06452,0l0,-1.93548l2.06452,0l0,-1.93548l-2.06452,0l0,-2.90323c0,-0.5342 -0.46142,-0.96774 -1.03226,-0.96774l0,-0.96774c0,-1.26 -0.86607,-2.32452 -2.06452,-2.72516l0,-2.11355l-2.06452,0l0,2.11355c-1.19845,0.40064 -2.06452,1.46516 -2.06452,2.72516l0,0.96774c-0.57084,0 -1.03226,0.43355 -1.03226,0.96774l0,2.90323l-2.06452,0l0,1.93548l2.06452,0l0,1.93548l-2.06452,0l0,1.93548l2.06452,0l0,1.93548l-2.06452,0l0,1.93548l2.06452,0l0,0.96774l-2.06452,0c-0.57084,0 -1.03226,0.43355 -1.03226,0.96774l0,0.96774l-9.29032,0c-0.57084,0 -1.03226,0.43355 -1.03226,0.96774l0,3.87097c0,0.5342 0.46142,0.96774 1.03226,0.96774l1.03226,0l0,19.35484l-1.03226,0c-0.57084,0 -1.03226,0.43355 -1.03226,0.96774l0,3.87097c0,0.5342 0.46142,0.96774 1.03226,0.96774l9.29032,0l0,0.96774c0,0.5342 0.46142,0.96774 1.03226,0.96774l1.03226,0l0,3.87097c0,0.5342 0.46142,0.96774 1.03226,0.96774l3.09677,0c0.57084,0 1.03226,-0.43355 1.03226,-0.96774l0,-0.96774l2.06452,0l0,0.96774c0,0.5342 0.46142,0.96774 1.03226,0.96774l3.09677,0c0.57084,0 1.03226,-0.43355 1.03226,-0.96774l0,-3.87097l14.45162,0l0,3.87097c0,0.5342 0.46142,0.96774 1.03226,0.96774l3.09677,0c0.57084,0 1.03226,-0.43355 1.03226,-0.96774l0,-0.96774l2.06452,0l0,0.96774c0,0.5342 0.46142,0.96774 1.03226,0.96774l3.09677,0c0.57084,0 1.03226,-0.43355 1.03226,-0.96774l0,-3.87097l1.03226,0c0.57084,0 1.03226,-0.43355 1.03226,-0.96774l0,-0.96774l9.29032,0c0.57084,0 1.03226,-0.43355 1.03226,-0.96774l0,-3.87097c0,-0.5342 -0.46142,-0.96774 -1.03226,-0.96774l-1.03226,0l0,-19.35484l1.03226,0c0.57084,0 1.03226,-0.43355 1.03226,-0.96774l0,-3.87097c0,-0.5342 -0.46142,-0.96774 -1.03226,-0.96774l0.00001,0.00001zm-60.90322,29.03226l0,-1.93548l1.03226,0c0.57084,0 1.03226,-0.43355 1.03226,-0.96774l0,-21.29032c0,-0.5342 -0.46142,-0.96774 -1.03226,-0.96774l-1.03226,0l0,-1.93548l8.25807,0l0,27.09678l-8.25807,0zm49.54839,-44.51614c0,-2.66807 2.31535,-4.83871 5.16129,-4.83871s5.16129,2.17064 5.16129,4.83871s-2.31535,4.83871 -5.16129,4.83871s-5.16129,-2.17064 -5.16129,-4.83871zm-9.29032,9.67742c0,-0.53323 0.46245,-0.96774 1.03226,-0.96774l11.35484,0c0.57084,0 1.03226,-0.43355 1.03226,-0.96774l0,-1.04516c0.33858,0.04548 0.68129,0.07742 1.03226,0.07742l0,1.93548c0,0.53323 -0.46245,0.96774 -1.03226,0.96774l-11.35484,0c-0.57084,0 -1.03226,0.43355 -1.03226,0.96774l0,2.90323l-1.03226,0l0,-3.87097zm-11.35484,-11.6129c0,-0.53323 0.46245,-0.96774 1.03226,-0.96774s1.03226,0.43452 1.03226,0.96774l0,0.96774l-2.06452,0l0,-0.96774l0.00001,0zm-1.03226,2.90323l4.12903,0l0,1.93548l-4.12903,0l0,-1.93548zm0,3.87097l4.12903,0l0,1.93548l-4.12903,0l0,-1.93548zm0,3.87097l4.12903,0l0,1.93548l-4.12903,0l0,-1.93548zm0,3.87097l4.12903,0l0,0.96774l-4.12903,0l0,-0.96774zm-13.41935,-14.51613c0,-0.53323 0.46245,-0.96774 1.03226,-0.96774s1.03226,0.43452 1.03226,0.96774l0,0.96774l-2.06452,0l0,-0.96774l0.00001,0zm-1.03226,2.90323l4.12903,0l0,1.93548l-4.12903,0l0,-1.93548zm0,3.87097l4.12903,0l0,1.93548l-4.12903,0l0,-1.93548zm0,3.87097l4.12903,0l0,1.93548l-4.12903,0l0,-1.93548zm0,3.87097l4.12903,0l0,0.96774l-4.12903,0l0,-0.96774zm7.2258,38.70968l-1.03226,0l0,-0.96774c0,-0.5342 -0.46142,-0.96774 -1.03226,-0.96774l-4.12903,0c-0.57084,0 -1.03226,0.43355 -1.03226,0.96774l0,0.96774l-1.03226,0l0,-2.90323l8.25807,0l0,2.90323l-0.00001,0zm26.83871,0l-1.03226,0l0,-0.96774c0,-0.5342 -0.46142,-0.96774 -1.03226,-0.96774l-4.12903,0c-0.57084,0 -1.03226,0.43355 -1.03226,0.96774l0,0.96774l-1.03226,0l0,-2.90323l8.25807,0l0,2.90323l-0.00001,0zm2.06452,-4.83871l-39.2258,0l0,-30.96775l39.2258,0l0,30.96775zm10.32258,-27.09678l-1.03226,0c-0.57084,0 -1.03226,0.43355 -1.03226,0.96774l0,21.29032c0,0.5342 0.46142,0.96774 1.03226,0.96774l1.03226,0l0,1.93548l-8.25807,0l0,-27.09678l8.25807,0l0,1.93548z" fill="#ffffff" id="svg_2"/>
   <path d="m15.48388,52.29032l33.03226,0c0.57084,0 1.03226,-0.43355 1.03226,-0.96774l0,-25.16129c0,-0.5342 -0.46142,-0.96774 -1.03226,-0.96774l-33.03226,0c-0.57084,0 -1.03226,0.43355 -1.03226,0.96774l0,25.16129c0,0.5342 0.46142,0.96774 1.03226,0.96774zm23.74193,-1.93548l-2.06452,0l0,-23.22581l2.06452,0l0,23.22581zm2.06452,-23.22581l2.06452,0l0,23.22581l-2.06452,0l0,-23.22581zm-6.19355,23.22581l-2.06452,0l0,-23.22581l2.06452,0l0,23.22581zm-4.12903,0l-2.06452,0l0,-23.22581l2.06452,0l0,23.22581zm-4.12903,0l-2.06452,0l0,-23.22581l2.06452,0l0,23.22581zm-4.12903,0l-2.06452,0l0,-23.22581l2.06452,0l0,23.22581zm24.77419,0l-2.06452,0l0,-23.22581l2.06452,0l0,23.22581zm-30.96774,-23.22581l2.06452,0l0,23.22581l-2.06452,0l0,-23.22581z" fill="#ef474b" id="svg_3"/>
   <path d="m55.74194,3.90322l2.06452,0l0,7.74193l-2.06452,0l0,-7.74193z" fill="#ffffff" id="svg_4"/>
  </g>
 </g>
</svg>