<svg width="64" height="64" xmlns="http://www.w3.org/2000/svg" xmlns:svg="http://www.w3.org/2000/svg">
 <g class="layer">
  <title>Layer 1</title>
  <g id="svg_1">
   <path d="m62,24l-9,0l0,-1c0,-0.552 -0.447,-1 -1,-1l-7,0l0,-2l10,0c1.654,0 3,-1.346 3,-3l0,-2.295c2.888,-0.863 5,-3.541 5,-6.705c0,-3.86 -3.141,-7 -7,-7s-7,3.14 -7,7c0,2.785 1.639,5.189 4,6.315c0,0.22833 0,0.45667 0,0.685l-10,0c-1.654,0 -3,1.346 -3,3l0,4l-4,0l0,-1l2,0l0,-2l-2,0l0,-2l2,0l0,-2l-2,0l0,-2l2,0l0,-2l-2,0l0,-3c0,-0.552 -0.447,-1 -1,-1l0,-1c0,-1.302 -0.839,-2.402 -2,-2.816l0,-2.184l-2,0l0,2.184c-1.161,0.414 -2,1.514 -2,2.816l0,1c-0.553,0 -1,0.448 -1,1l0,3l-2,0l0,2l2,0l0,2l-2,0l0,2l2,0l0,2l-2,0l0,2l2,0l0,1l-6,0l0,-1l2,0l0,-2l-2,0l0,-2l2,0l0,-2l-2,0l0,-2l2,0l0,-2l-2,0l0,-3c0,-0.552 -0.447,-1 -1,-1l0,-1c0,-1.302 -0.839,-2.402 -2,-2.816l0,-2.184l-2,0l0,2.184c-1.161,0.414 -2,1.514 -2,2.816l0,1c-0.553,0 -1,0.448 -1,1l0,3l-2,0l0,2l2,0l0,2l-2,0l0,2l2,0l0,2l-2,0l0,2l2,0l0,1l-2,0c-0.553,0 -1,0.448 -1,1l0,1l-9,0c-0.553,0 -1,0.448 -1,1l0,4c0,0.552 0.447,1 1,1l1,0l0,20l-1,0c-0.553,0 -1,0.448 -1,1l0,4c0,0.552 0.447,1 1,1l9,0l0,1c0,0.552 0.447,1 1,1l1,0l0,4c0,0.552 0.447,1 1,1l3,0c0.553,0 1,-0.448 1,-1l0,-1l2,0l0,1c0,0.552 0.447,1 1,1l3,0c0.553,0 1,-0.448 1,-1l0,-4l14,0l0,4c0,0.552 0.447,1 1,1l3,0c0.553,0 1,-0.448 1,-1l0,-1l2,0l0,1c0,0.552 0.447,1 1,1l3,0c0.553,0 1,-0.448 1,-1l0,-4l1,0c0.553,0 1,-0.448 1,-1l0,-1l9,0c0.553,0 1,-0.448 1,-1l0,-4c0,-0.552 -0.447,-1 -1,-1l-1,0l0,-20l1,0c0.553,0 1,-0.448 1,-1l0,-4c0,-0.552 -0.447,-1 -1,-1zm-59,30l0,-2l1,0c0.553,0 1,-0.448 1,-1l0,-22c0,-0.552 -0.447,-1 -1,-1l-1,0l0,-2l8,0l0,28l-8,0zm48,-46c0,-2.757 2.243,-5 5,-5s5,2.243 5,5s-2.243,5 -5,5s-5,-2.243 -5,-5zm-9,10c0,-0.551 0.448,-1 1,-1l11,0c0.553,0 1,-0.448 1,-1l0,-1.08c0.328,0.047 0.66,0.08 1,0.08l0,2c0,0.551 -0.448,1 -1,1l-11,0c-0.553,0 -1,0.448 -1,1l0,3l-1,0l0,-4zm-11,-12c0,-0.551 0.448,-1 1,-1s1,0.449 1,1l0,1l-2,0l0,-1zm-1,3l4,0l0,2l-4,0l0,-2zm0,4l4,0l0,2l-4,0l0,-2zm0,4l4,0l0,2l-4,0l0,-2zm0,4l4,0l0,1l-4,0l0,-1zm-13,-15c0,-0.551 0.448,-1 1,-1s1,0.449 1,1l0,1l-2,0l0,-1zm-1,3l4,0l0,2l-4,0l0,-2zm0,4l4,0l0,2l-4,0l0,-2zm0,4l4,0l0,2l-4,0l0,-2zm0,4l4,0l0,1l-4,0l0,-1zm7,40l-1,0l0,-1c0,-0.552 -0.447,-1 -1,-1l-4,0c-0.553,0 -1,0.448 -1,1l0,1l-1,0l0,-3l8,0l0,3zm26,0l-1,0l0,-1c0,-0.552 -0.447,-1 -1,-1l-4,0c-0.553,0 -1,0.448 -1,1l0,1l-1,0l0,-3l8,0l0,3zm2,-5l-38,0l0,-32l38,0l0,32zm10,-28l-1,0c-0.553,0 -1,0.448 -1,1l0,22c0,0.552 0.447,1 1,1l1,0l0,2l-8,0l0,-28l8,0l0,2z" fill="black" id="svg_2" transform="matrix(1 0 0 1 0 0)"/>
   <path d="m16,54l32,0c0.553,0 1,-0.448 1,-1l0,-26c0,-0.552 -0.447,-1 -1,-1l-32,0c-0.553,0 -1,0.448 -1,1l0,26c0,0.552 0.447,1 1,1zm23,-2l-2,0l0,-24l2,0l0,24zm2,-24l2,0l0,24l-2,0l0,-24zm-6,24l-2,0l0,-24l2,0l0,24zm-4,0l-2,0l0,-24l2,0l0,24zm-4,0l-2,0l0,-24l2,0l0,24zm-4,0l-2,0l0,-24l2,0l0,24zm24,0l-2,0l0,-24l2,0l0,24zm-30,-24l2,0l0,24l-2,0l0,-24z" fill="#ef474b" id="svg_3"/>
   <path d="m55,4l2,0l0,8l-2,0l0,-8z" id="svg_4"/>
  </g>
 </g>
</svg>