<svg width="64" height="64" xmlns="http://www.w3.org/2000/svg" xmlns:svg="http://www.w3.org/2000/svg">
 <g class="layer">
  <title>Layer 1</title>
  <g id="svg_1">
   <path d="m7,37c1.973,0 3.919,0.459 5.683,1.342l3.317,1.658l-1.103,-3.308c-1.133,-3.399 -4.314,-5.692 -7.897,-5.692c-1.657,0 -3,1.343 -3,3s1.343,3 3,3z" fill="#ffffff" id="svg_2"/>
   <path d="m7,45c0,1.105 0.895,2 2,2l1,0c1.315,-0.658 2.766,-1 4.236,-1l1.764,0l-1.6,-1.2c-1.558,-1.168 -3.453,-1.8 -5.4,-1.8c-1.105,0 -2,0.895 -2,2z" fill="#ffffff" id="svg_3"/>
   <path d="m57,37c1.657,0 3,-1.343 3,-3s-1.343,-3 -3,-3c-3.583,0 -6.764,2.293 -7.897,5.692l-1.103,3.308l3.317,-1.658c1.764,-0.883 3.71,-1.342 5.683,-1.342z" fill="#ffffff" id="svg_4"/>
   <path d="m54,47l1,0c1.105,0 2,-0.895 2,-2c0,-1.105 -0.895,-2 -2,-2c-1.947,0 -3.842,0.632 -5.4,1.8l-1.6,1.2l1.764,0c1.47,0 2.921,0.342 4.236,1z" fill="#ffffff" id="svg_5"/>
   <path d="m23.114,34c2.223,0 3.162,1.546 3.991,2.911c0.966,1.589 1.878,3.089 4.895,3.089s3.929,-1.5 4.895,-3.089c0.829,-1.365 1.768,-2.911 3.991,-2.911c0.691,0 1.313,0.158 1.863,0.423c1.469,-2.136 2.251,-4.622 2.251,-7.239c0,-2.538 -0.744,-4.997 -2.152,-7.11l-2.719,-4.077c-2.951,-4.428 -5.681,-9.059 -8.129,-13.791c-2.448,4.732 -5.178,9.363 -8.129,13.791l-2.719,4.077c-1.408,2.113 -2.152,4.571 -2.152,7.109c0,2.618 0.782,5.104 2.251,7.24c0.55,-0.265 1.172,-0.423 1.863,-0.423zm2.421,-16.894l1.664,1.109l-1.053,1.58l-1.664,-1.109l1.053,-1.58zm-2.719,4.078l0.408,-0.612l1.664,1.11l-0.408,0.612c-0.969,1.453 -1.48,3.145 -1.48,4.89c0,1.517 0.394,3.013 1.137,4.327l-1.74,0.985c-0.915,-1.613 -1.397,-3.45 -1.397,-5.312c0,-2.142 0.628,-4.217 1.816,-6z" fill="#ef474b" id="svg_6"/>
   <path d="m40.886,36c-1.051,0 -1.482,0.633 -2.282,1.949c-1.04,1.71 -2.462,4.051 -6.604,4.051s-5.564,-2.341 -6.604,-4.051c-0.799,-1.316 -1.231,-1.949 -2.282,-1.949c-1.558,0 -2.114,1.189 -2.114,2.302c0,1.591 0.502,2.177 1.992,3.917c0.507,0.591 1.103,1.287 1.793,2.161c2.203,2.79 2.234,4.733 2.218,7.602c0.811,-0.045 1.236,-0.348 1.785,-0.773c0.696,-0.539 1.563,-1.209 3.196,-1.209s2.499,0.67 3.195,1.209c0.556,0.431 0.984,0.739 1.817,0.776c-0.016,-2.871 0.014,-4.814 2.218,-7.605c0.69,-0.875 1.286,-1.57 1.793,-2.161c1.49,-1.74 1.992,-2.326 1.992,-3.917c0.001,-1.113 -0.555,-2.302 -2.113,-2.302z" fill="#ffffff" id="svg_7"/>
   <path d="m61.024,52.791c-0.696,0.539 -1.562,1.209 -3.197,1.209s-2.502,-0.67 -3.198,-1.209c-0.595,-0.459 -1.024,-0.791 -1.976,-0.791c-0.951,0 -1.38,0.332 -1.973,0.791c-0.696,0.539 -1.562,1.209 -3.196,1.209s-2.499,-0.67 -3.195,-1.209c-0.593,-0.459 -1.021,-0.791 -1.971,-0.791c-0.95,0 -1.379,0.332 -1.972,0.791c-0.696,0.539 -1.562,1.209 -3.196,1.209s-2.499,-0.67 -3.195,-1.209c-0.593,-0.459 -1.021,-0.791 -1.971,-0.791c-0.95,0 -1.379,0.332 -1.972,0.791c-0.696,0.539 -1.562,1.209 -3.195,1.209c-1.634,0 -2.499,-0.67 -3.195,-1.209c-0.593,-0.459 -1.021,-0.791 -1.971,-0.791s-1.378,0.332 -1.971,0.791c-0.695,0.539 -1.561,1.209 -3.194,1.209c-1.632,0 -2.497,-0.67 -3.192,-1.209c-0.593,-0.459 -1.021,-0.791 -1.969,-0.791c-0.949,0 -1.378,0.332 -1.971,0.791c-0.695,0.539 -1.561,1.209 -3.194,1.209c-1.632,0 -2.497,-0.671 -3.192,-1.209c-0.334,-0.259 -0.615,-0.478 -0.968,-0.619l0,2.926c1.013,0.204 1.656,0.695 2.192,1.111c0.592,0.459 1.02,0.791 1.968,0.791c0.949,0 1.377,-0.332 1.97,-0.791c0.695,-0.539 1.561,-1.209 3.195,-1.209c1.633,0 2.498,0.671 3.193,1.21c0.593,0.458 1.02,0.79 1.968,0.79c0.949,0 1.377,-0.332 1.97,-0.791c0.695,-0.539 1.562,-1.209 3.195,-1.209s2.499,0.67 3.195,1.209c0.593,0.459 1.022,0.791 1.971,0.791s1.378,-0.332 1.971,-0.791c0.696,-0.539 1.563,-1.209 3.196,-1.209s2.499,0.67 3.195,1.209c0.593,0.459 1.022,0.791 1.971,0.791c0.95,0 1.379,-0.332 1.972,-0.791c0.696,-0.539 1.563,-1.209 3.196,-1.209s2.499,0.67 3.195,1.209c0.593,0.459 1.022,0.791 1.971,0.791c0.95,0 1.379,-0.332 1.972,-0.791c0.696,-0.539 1.563,-1.209 3.197,-1.209s2.502,0.67 3.198,1.209c0.595,0.459 1.024,0.791 1.976,0.791c0.951,0 1.38,-0.332 1.975,-0.791c0.538,-0.416 1.182,-0.907 2.198,-1.111l0,-2.927c-0.355,0.141 -0.639,0.36 -0.976,0.62z" fill="#ffffff" id="svg_8"/>
   <path d="m57.827,59c-1.635,0 -2.502,-0.67 -3.198,-1.209c-0.595,-0.459 -1.024,-0.791 -1.976,-0.791c-0.951,0 -1.38,0.332 -1.973,0.791c-0.696,0.539 -1.562,1.209 -3.196,1.209s-2.499,-0.67 -3.195,-1.209c-0.593,-0.459 -1.021,-0.791 -1.971,-0.791c-0.95,0 -1.379,0.332 -1.972,0.791c-0.696,0.539 -1.562,1.209 -3.196,1.209s-2.499,-0.67 -3.195,-1.209c-0.593,-0.459 -1.021,-0.791 -1.971,-0.791c-0.95,0 -1.379,0.332 -1.972,0.791c-0.696,0.539 -1.562,1.209 -3.195,1.209c-1.634,0 -2.499,-0.67 -3.195,-1.209c-0.593,-0.459 -1.021,-0.791 -1.971,-0.791s-1.378,0.332 -1.971,0.791c-0.695,0.539 -1.561,1.209 -3.194,1.209c-1.632,0 -2.497,-0.67 -3.192,-1.209c-0.593,-0.459 -1.021,-0.791 -1.969,-0.791c-0.949,0 -1.378,0.332 -1.971,0.791c-0.695,0.539 -1.561,1.209 -3.194,1.209c-1.632,0 -2.497,-0.671 -3.192,-1.209c-0.331,-0.257 -0.62,-0.466 -0.968,-0.607l0,4.816l60,0l0,-4.817c-0.351,0.141 -0.642,0.35 -0.976,0.608c-0.696,0.539 -1.562,1.209 -3.197,1.209z" fill="#ffffff" id="svg_9"/>
  </g>
 </g>
</svg>