<svg width="512" height="512" xmlns="http://www.w3.org/2000/svg" xmlns:svg="http://www.w3.org/2000/svg">
 <g class="layer">
  <title>Layer 1</title>
  <g id="svg_1">
   <path d="m285.49,231.609c-4.142,0 -7.5,3.358 -7.5,7.5s3.358,7.5 7.5,7.5s7.5,-3.358 7.5,-7.5s-3.358,-7.5 -7.5,-7.5zm-189.599,211.279c-4.142,0 -7.5,3.357 -7.5,7.5l0,54.112c0,4.143 3.358,7.5 7.5,7.5s7.5,-3.357 7.5,-7.5l0,-54.112c0,-4.143 -3.358,-7.5 -7.5,-7.5zm201.456,-361.447c4.142,0 7.5,-3.358 7.5,-7.5s-3.358,-7.5 -7.5,-7.5s-7.5,3.358 -7.5,7.5s3.358,7.5 7.5,7.5zm183.696,94.182s-0.001,-0.001 -0.002,-0.001c-18.544,-13.085 -25.181,-13.085 -27.362,-13.085c-9.053,0 -16.776,5.719 -19.803,13.725c-11.792,0.688 -21.176,10.496 -21.176,22.458l0,76.92c-8.729,3.096 -15,11.433 -15,21.21l0,53.166c-6.144,-4.813 -13.09,-8.572 -20.642,-11.105c-16.543,-5.55 -75.68,-25.409 -89.356,-30.009c-5.331,-1.793 -8.912,-6.765 -8.912,-12.371l0,-0.24c33.416,-18.711 56.058,-54.461 56.058,-95.405l0,-63.659l14.186,0c6.893,0 12.5,-5.607 12.5,-12.5l0,-32.494c0,-6.893 -5.607,-12.5 -12.5,-12.5l-14.186,0l0,-5.443c0,-11.379 -5.054,-21.593 -13.027,-28.537l0,-17.093c-0.001,-15.804 -12.858,-28.66 -28.661,-28.66l-138.26,0c-15.803,0 -28.66,12.856 -28.66,28.66l0,19.918c-6.266,6.756 -10.107,15.792 -10.107,25.712l0,5.443l-14.186,0c-6.893,0 -12.5,5.607 -12.5,12.5l0,32.492c0,6.893 5.607,12.5 12.5,12.5l14.186,0l0,63.659c0,40.944 22.641,76.694 56.058,95.405l0,0.24c0,5.606 -3.581,10.578 -8.908,12.37c-9.863,3.318 -78.599,26.395 -89.36,30.01c-28.209,9.475 -47.162,35.809 -47.162,65.53l0,100.061c0,4.143 3.358,7.5 7.5,7.5s7.5,-3.357 7.5,-7.5l0,-100.06c0,-23.271 14.844,-43.891 36.938,-51.312l9.694,-3.255l0,65.514c0,4.143 3.358,7.5 7.5,7.5s7.5,-3.357 7.5,-7.5l0,-70.55l16.764,-5.631l0,39.539c0,15.791 12.864,28.639 28.676,28.639l153.317,0c15.812,0 28.676,-12.848 28.676,-28.639l0,-39.539l16.764,5.631l0,159.663c0,4.143 3.358,7.5 7.5,7.5s7.5,-3.357 7.5,-7.5l0,-154.626l9.696,3.256c10.119,3.395 18.86,9.58 25.416,17.952l0,41.06c-12.344,-1.791 -23.716,7.287 -23.716,19.752l0,60.354c0,10.892 8.86,19.752 19.751,19.752l43.719,0c20.146,0 36.536,-16.39 36.536,-36.535l0,-26.788c0,-18.364 -13.621,-33.601 -31.29,-36.153l0,-115.674c0.045,-9.453 -6.13,-18.105 -15,-21.199l0,-76.931c0,-3.703 2.699,-6.779 6.232,-7.384c3.067,7.926 10.751,13.572 19.747,13.572c2.182,0 8.821,0 27.361,-13.085c2.629,-1.854 4.199,-4.882 4.2,-8.098c-0.002,-3.217 -1.57,-6.246 -4.199,-8.102zm-146.196,-80.89l11.686,0l0,27.492l-11.686,0l0,-27.492zm-218.714,27.493l-11.686,0l0,-27.493l11.686,0l0,27.493zm25.107,-93.566c0,-7.532 6.128,-13.66 13.66,-13.66l138.26,0c7.532,0 13.66,6.128 13.66,13.66l0,9.08c-3.134,-0.843 -6.425,-1.3 -9.822,-1.3l-143.016,0c-4.469,0 -8.758,0.784 -12.742,2.213l0,-9.993zm-10.107,172.225l0,-126.595c0,-12.6 10.25,-22.85 22.849,-22.85l143.017,0c12.599,0 22.849,10.25 22.849,22.85l0,126.595c0,51.979 -42.289,94.268 -94.269,94.268l-0.178,0c-51.98,-0.001 -94.268,-42.289 -94.268,-94.268zm55.305,102.081c12.109,4.637 25.243,7.186 38.963,7.186l0.178,0c13.72,0 26.854,-2.549 38.963,-7.186c2.294,9.806 9.913,17.87 19.919,20.67c-16.419,13.754 -37.342,21.466 -58.971,21.466s-42.552,-7.711 -58.971,-21.465c9.918,-3.066 17.62,-10.672 19.919,-20.671zm129.386,75.78c0,7.521 -6.135,13.639 -13.676,13.639l-153.317,0c-7.541,0 -13.676,-6.118 -13.676,-13.639l0,-44.577l15.115,-5.076c19.913,19.762 47.049,31.009 75.219,31.009s55.306,-11.247 75.219,-31.009l15.115,5.076l0,44.577l0.001,0zm96.876,-81.896c0,-4.136 3.364,-7.5 7.5,-7.5c4.086,0 7.521,3.422 7.5,7.5l0,115.292l-15,0l0,-115.292zm24.754,130.292c11.875,0 21.536,9.66 21.536,21.535l0,26.788c0,11.875 -9.661,21.535 -21.536,21.535l-43.719,0c-2.62,0 -4.751,-2.132 -4.751,-4.752l0,-60.354c0,-2.62 2.131,-4.752 4.751,-4.752l43.719,0zm16.225,-237.235c-3.411,0 -6.185,-2.774 -6.185,-6.186c0,-3.41 2.774,-6.185 6.147,-6.186c1.41,0.084 5.705,1.853 12.555,6.187c-6.848,4.334 -11.136,6.102 -12.517,6.185zm-288.189,41.702c-4.142,0 -7.5,3.358 -7.5,7.5s3.358,7.5 7.5,7.5s7.5,-3.358 7.5,-7.5s-3.358,-7.5 -7.5,-7.5zm125.862,-46.15c6.469,0 11.731,-5.263 11.731,-11.731l0,-65.556c0,-6.469 -5.263,-11.731 -11.731,-11.731l-15.952,0c-4.142,0 -7.5,3.357 -7.5,7.5s3.358,7.5 7.5,7.5l12.683,0l0,59.019l-125.186,0l0,-59.02l77.503,0c4.142,0 7.5,-3.357 7.5,-7.5s-3.358,-7.5 -7.5,-7.5l-80.772,0c-6.469,0 -11.731,5.263 -11.731,11.731l0,65.556c0,6.469 5.263,11.731 11.731,11.731l131.724,0l0,0.001zm-137.719,-104.018c4.142,0 7.5,-3.358 7.5,-7.5s-3.358,-7.5 -7.5,-7.5s-7.5,3.358 -7.5,7.5s3.358,7.5 7.5,7.5z" fill="#ef474b" id="svg_2"/>
  </g>
 </g>
</svg>